<svg width="187.000000" height="70.000000" viewBox="0 0 187 70" fill="none" xmlns="http://www.w3.org/2000/svg" xmlns:xlink="http://www.w3.org/1999/xlink">
	<desc>
			Created with Pixso.
	</desc>
	<defs/>
	<path d="M175 0L12 0C5.37259 0 0 5.37256 0 12L0 23C6.62741 23 12 28.3726 12 35C12 41.6274 6.62741 47 0 47L0 58C0 64.6274 5.37259 70 12 70L175 70C181.627 70 187 64.6274 187 58L187 47C180.373 47 175 41.6274 175 35C175 28.3726 180.373 23 187 23L187 12C187 5.37256 181.627 0 175 0Z" clip-rule="evenodd" fill="#FFFFFF" fill-opacity="1.000000" fill-rule="evenodd"/>
</svg>
